<svg width="244" height="53" viewBox="0 0 244 53" fill="none" xmlns="http://www.w3.org/2000/svg">
<path d="M38.72 1H5.28C2.36393 1 0 3.36393 0 6.28V39.72C0 42.6361 2.36393 45 5.28 45H38.72C41.6361 45 44 42.6361 44 39.72V6.28C44 3.36393 41.6361 1 38.72 1Z" fill="url(#paint0_radial_13_1291)"/>
<path fill-rule="evenodd" clip-rule="evenodd" d="M10.0661 12.7036C10.5816 12.1881 11.4173 12.1881 11.9328 12.7036L16.3328 17.1036C16.8483 17.6191 16.8483 18.4549 16.3328 18.9703L11.9328 23.3703C11.4173 23.8858 10.5816 23.8858 10.0661 23.3703C9.55056 22.8548 9.55056 22.0191 10.0661 21.5036L13.5327 18.037L10.0661 14.5703C9.55056 14.0549 9.55056 13.2191 10.0661 12.7036ZM34.0208 12.7036C34.5363 13.2191 34.5363 14.0549 34.0208 14.5703L30.5543 18.037L34.0208 21.5036C34.5363 22.0191 34.5363 22.8548 34.0208 23.3703C33.5053 23.8858 32.6696 23.8858 32.1541 23.3703L27.7541 18.9703C27.2386 18.4549 27.2386 17.6191 27.7541 17.1036L32.1541 12.7036C32.6696 12.1881 33.5053 12.1881 34.0208 12.7036ZM19.8457 21.177C20.5417 20.9596 21.2819 21.3473 21.4994 22.0433C21.5489 22.2018 21.6672 22.3259 21.9466 22.4252C22.0822 22.4734 22.2191 22.5001 22.3252 22.5137C22.375 22.52 22.4132 22.5229 22.4352 22.5243C22.4518 22.523 22.479 22.5206 22.5146 22.5156C22.6015 22.5035 22.7216 22.4789 22.8481 22.4319C23.0956 22.3398 23.3064 22.1904 23.4302 21.9079C23.7223 21.24 24.5006 20.9355 25.1685 21.2276C25.8364 21.5198 26.1409 22.2981 25.8487 22.966C25.3565 24.0915 24.4673 24.6461 23.7688 24.906C23.4222 25.0351 23.1079 25.0984 22.8784 25.1303C22.7624 25.1465 22.6644 25.1551 22.5901 25.1597C22.5528 25.162 22.5213 25.1634 22.4959 25.1641C22.4833 25.1644 22.4722 25.1646 22.4628 25.1648L22.4498 25.165H22.4444H22.4407C22.44 25.165 22.4394 25.165 22.4394 23.845C22.4394 25.165 22.4389 25.165 22.4384 25.165H22.4373H22.435H22.4298L22.4174 25.1648C22.4083 25.1646 22.3974 25.1644 22.3847 25.1641C22.3594 25.1635 22.3272 25.1623 22.289 25.1602C22.2128 25.1558 22.1107 25.1477 21.9899 25.1322C21.7523 25.1018 21.4217 25.0405 21.0622 24.9127C20.3517 24.66 19.37 24.0801 18.9795 22.8307C18.7621 22.1348 19.1498 21.3945 19.8457 21.177Z" fill="#1E293B"/>
<g filter="url(#filter0_d_13_1291)">
<path d="M58.6989 1H70.2354L82.42 30.5625H82.9385L95.1231 1H106.659V45H97.586V16.3614H97.2187L85.7686 44.7852H79.5899L68.1398 16.2539H67.7726V45H58.6989V1ZM129.27 44.5579C125.856 44.5579 122.918 43.8702 120.455 42.4952C118.007 41.1059 116.12 39.1438 114.795 36.6086C113.47 34.0591 112.807 31.0441 112.807 27.5637C112.807 24.1691 113.47 21.1899 114.795 18.6261C116.12 16.0623 117.985 14.0643 120.391 12.632C122.81 11.1997 125.648 10.4835 128.903 10.4835C131.092 10.4835 133.13 10.8345 135.017 11.5363C136.918 12.2237 138.574 13.2622 139.985 14.6515C141.411 16.0408 142.52 17.7882 143.312 19.8937C144.105 21.9849 144.501 24.4341 144.501 27.2414V29.7551H116.48V24.0832H135.837C135.837 22.7655 135.549 21.5981 134.973 20.5812C134.397 19.5643 133.598 18.7693 132.575 18.1964C131.567 17.6092 130.393 17.3156 129.054 17.3156C127.657 17.3156 126.418 17.6378 125.338 18.2824C124.272 18.9126 123.437 19.7648 122.832 20.839C122.227 21.8989 121.917 23.0805 121.903 24.3839V29.7765C121.903 31.4094 122.205 32.8202 122.81 34.009C123.43 35.1978 124.301 36.1144 125.424 36.759C126.548 37.4035 127.88 37.7258 129.421 37.7258C130.444 37.7258 131.38 37.5826 132.23 37.2961C133.079 37.0096 133.807 36.5799 134.412 36.007C135.017 35.4341 135.477 34.7323 135.794 33.9016L144.306 34.4601C143.874 36.494 142.988 38.27 141.649 39.7883C140.324 41.2922 138.61 42.4666 136.507 43.3116C134.419 44.1423 132.006 44.5579 129.27 44.5579ZM150.554 45V12H159.476V17.7578H159.822C160.426 15.7097 161.442 14.1628 162.868 13.1172C164.294 12.0573 165.935 11.5274 167.793 11.5274C168.254 11.5274 168.751 11.556 169.284 11.6133C169.817 11.6706 170.285 11.7494 170.688 11.8496V19.9708C170.256 19.8418 169.659 19.7273 168.895 19.627C168.132 19.5268 167.433 19.4766 166.799 19.4766C165.446 19.4766 164.236 19.7702 163.17 20.3574C162.119 20.9304 161.283 21.7325 160.664 22.7637C160.059 23.795 159.756 24.9838 159.756 26.3301V45H150.554ZM184.65 1V45H175.447V1H184.65ZM192.022 45V12H201.225V45H192.022ZM196.645 10.2861C195.277 10.2861 194.103 9.83496 193.124 8.93261C192.159 8.01594 191.676 6.92023 191.676 5.64547C191.676 4.38507 192.159 3.30369 193.124 2.40134C194.103 1.48467 195.277 1.02634 196.645 1.02634C198.014 1.02634 199.18 1.48467 200.145 2.40134C201.124 3.30369 201.614 4.38507 201.614 5.64547C201.614 6.92023 201.124 8.01594 200.145 8.93261C199.18 9.83496 198.014 10.2861 196.645 10.2861ZM217.801 25.9219V45H208.598V12H217.369V17.8223H217.758C218.492 15.903 219.724 14.3848 221.452 13.2676C223.18 12.1361 225.276 11.5703 227.739 11.5703C230.043 11.5703 232.052 12.0716 233.766 13.0742C235.48 14.0769 236.812 15.5092 237.763 17.3712C238.713 19.2188 239.189 21.4245 239.189 23.9884V45H229.986V25.6211C230 23.6016 229.481 22.0261 228.43 20.8946C227.379 19.7488 225.931 19.1758 224.088 19.1758C222.849 19.1758 221.754 19.4408 220.804 19.9708C219.868 20.5007 219.133 21.2741 218.6 22.291C218.082 23.2937 217.816 24.504 217.801 25.9219Z" fill="white"/>
</g>
<defs>
<filter id="filter0_d_13_1291" x="54.6989" y="1" width="188.49" height="52" filterUnits="userSpaceOnUse" color-interpolation-filters="sRGB">
<feFlood flood-opacity="0" result="BackgroundImageFix"/>
<feColorMatrix in="SourceAlpha" type="matrix" values="0 0 0 0 0 0 0 0 0 0 0 0 0 0 0 0 0 0 127 0" result="hardAlpha"/>
<feOffset dy="4"/>
<feGaussianBlur stdDeviation="2"/>
<feComposite in2="hardAlpha" operator="out"/>
<feColorMatrix type="matrix" values="0 0 0 0 0 0 0 0 0 0 0 0 0 0 0 0 0 0 0.25 0"/>
<feBlend mode="normal" in2="BackgroundImageFix" result="effect1_dropShadow_13_1291"/>
<feBlend mode="normal" in="SourceGraphic" in2="effect1_dropShadow_13_1291" result="shape"/>
</filter>
<radialGradient id="paint0_radial_13_1291" cx="0" cy="0" r="1" gradientUnits="userSpaceOnUse" gradientTransform="translate(0 1) rotate(45) scale(62.2254)">
<stop offset="0.576042" stop-color="#FAFAF9"/>
<stop offset="0.753125" stop-color="#D5BAEC"/>
<stop offset="1" stop-color="#7E22CE"/>
</radialGradient>
</defs>
</svg>
