<svg xmlns="http://www.w3.org/2000/svg" width="44" height="44" fill="none"><path fill="url(#a)" d="M38.72 0H5.28A5.28 5.28 0 0 0 0 5.28v33.44A5.28 5.28 0 0 0 5.28 44h33.44A5.28 5.28 0 0 0 44 38.72V5.28A5.28 5.28 0 0 0 38.72 0Z"/><path fill="#1E293B" fill-rule="evenodd" d="M10.066 11.704a1.32 1.32 0 0 1 1.867 0l4.4 4.4a1.32 1.32 0 0 1 0 1.866l-4.4 4.4a1.32 1.32 0 1 1-1.867-1.866l3.467-3.467-3.467-3.467a1.32 1.32 0 0 1 0-1.866Zm23.955 0a1.32 1.32 0 0 1 0 1.866l-3.467 3.467 3.467 3.467a1.32 1.32 0 1 1-1.867 1.866l-4.4-4.4a1.32 1.32 0 0 1 0-1.866l4.4-4.4a1.32 1.32 0 0 1 1.867 0Zm-14.175 8.473a1.32 1.32 0 0 1 1.653.866c.05.159.168.283.448.382a1.864 1.864 0 0 0 .488.1 1.615 1.615 0 0 0 .413-.092c.248-.093.458-.243.582-.525a1.32 1.32 0 1 1 2.419 1.058c-.492 1.125-1.382 1.68-2.08 1.94a4.24 4.24 0 0 1-1.273.258h-.033l-.013.001H22.44c-.001 0-.002 0-.002-1.32v1.32h-.054a4.308 4.308 0 0 1-.395-.032 4.498 4.498 0 0 1-.928-.22c-.71-.253-1.692-.833-2.082-2.082a1.32 1.32 0 0 1 .866-1.654Z" clip-rule="evenodd"/><defs><radialGradient id="a" cx="0" cy="0" r="1" gradientTransform="matrix(44 44 -44 44 0 0)" gradientUnits="userSpaceOnUse"><stop offset=".576" stop-color="#FAFAF9"/><stop offset=".753" stop-color="#D5BAEC"/><stop offset="1" stop-color="#7E22CE"/></radialGradient></defs></svg>
