<svg xmlns="http://www.w3.org/2000/svg" width="24" height="24" fill="none"><g clip-path="url(#a)"><path fill="url(#b)" d="M18.787 2.233c-.584.68-.856 2.21-.264 3.763.593 1.551 1.5 1.214 2.066 2.796.747 2.088.4 4.893.4 4.893s.897 2.6 1.523-.162c1.385-5.188-3.725-10.012-3.725-11.29Z"/><path fill="url(#c)" d="M11.66 23.772c5.982 0 10.827-4.872 10.827-10.878 0-6.007-4.845-10.878-10.82-10.878C5.69 2.016.844 6.886.844 12.893c-.011 6.013 4.84 10.879 10.815 10.879Z"/><path fill="url(#d)" d="M19.772 19.601c-.234.165-.48.313-.734.443.338-.495.65-1.008.934-1.536a6.03 6.03 0 0 0 .614-.772c.084-.132.179-.295.279-.484.608-1.095 1.278-2.867 1.297-4.687v-.138a6.27 6.27 0 0 0-.14-1.36c.006.035.01.07.014.104l-.015-.08.024.146c.124 1.054.036 2.082-.407 2.84l-.02.033c.229-1.152.305-2.425.05-3.698 0 0-.102-.62-.863-2.499-.439-1.081-1.215-1.968-1.902-2.614-.602-.746-1.15-1.244-1.45-1.563-.63-.663-.895-1.16-1.003-1.485-.094-.047-1.296-1.214-1.391-1.259-.525.814-2.175 3.358-1.39 5.736.355 1.077 1.255 2.195 2.196 2.822.041.048.561.61.807 1.882.255 1.314.122 2.338-.403 3.854-.617 1.33-2.196 2.644-3.676 2.778-3.163.288-4.321-1.588-4.321-1.588 1.13.45 2.38.357 3.14-.11.765-.474 1.228-.825 1.605-.687.37.136.666-.264.4-.679a1.915 1.915 0 0 0-1.937-.843c-.766.124-1.469.732-2.473.143a2.135 2.135 0 0 1-.188-.123c-.067-.044.215.066.149.017a4.916 4.916 0 0 1-.631-.42c-.015-.014.152.053.137.04-.94-.774-.822-1.296-.793-1.624.025-.262.195-.598.482-.735.139.076.225.134.225.134l-.09-.185c.01-.005.021-.004.032-.008.114.055.366.197.498.284.172.122.228.23.228.23s.045-.024.011-.13a.683.683 0 0 0-.235-.321h.01c.103.058.2.124.29.2.049-.176.135-.359.116-.686-.012-.23-.006-.29-.047-.378-.036-.076.02-.106.084-.027a.792.792 0 0 0-.054-.18v-.006c.079-.274 1.664-.987 1.78-1.07a1.64 1.64 0 0 0 .467-.507c.088-.14.154-.338.17-.637.01-.216-.091-.36-1.695-.527-.439-.043-.696-.361-.842-.654a3.957 3.957 0 0 0-.081-.178 1.407 1.407 0 0 1-.063-.206c.263-.753.703-1.39 1.35-1.87.036-.033-.14.008-.105-.025.041-.037.31-.146.36-.17.063-.03-.265-.169-.554-.135-.294.033-.357.068-.514.135.066-.065.273-.15.224-.15-.317.05-.711.234-1.048.442a.26.26 0 0 1 .02-.106c-.157.067-.543.337-.656.565.005-.044.007-.088.007-.132-.12.1-.228.213-.322.337l-.006.006c-.91-.366-1.713-.39-2.391-.227-.149-.149-.221-.04-.559-.782-.023-.045.018.044 0 0-.055-.144.034.192 0 0-.568.448-1.315.956-1.674 1.314-.004.015.419-.12 0 0-.146.042-.136.13-.159.915-.005.06 0 .126-.005.18-.286.366-.482.674-.555.834-.371.639-.78 1.635-1.175 3.209a8.17 8.17 0 0 1 .63-1.227c-.33.836-.648 2.148-.711 4.17.08-.418.181-.83.305-1.236-.078 1.677.212 3.35.847 4.904A11.99 11.99 0 0 0 3.52 19.88a10.998 10.998 0 0 0 7.997 3.436 11.01 11.01 0 0 0 8.255-3.716Z"/><path fill="url(#e)" d="M17.344 21.14c3.972-.46 5.732-4.554 3.473-4.635-2.04-.066-5.354 4.851-3.473 4.634Z"/><path fill="url(#f)" d="M21.103 15.669c2.733-1.59 2.019-5.027 2.019-5.027s-1.055 1.226-1.771 3.179c-.707 1.935-1.892 2.809-.248 1.848Z"/><path fill="url(#g)" d="M12.426 23.172c3.81 1.216 7.086-1.786 5.067-2.788-1.834-.904-6.875 2.213-5.067 2.788Z"/><path fill="url(#h)" d="M21.387 17.128c.092-.131.218-.55.328-.737.673-1.086.678-1.951.678-1.972.406-2.03.37-2.859.12-4.39-.202-1.234-1.082-3.002-1.844-3.854-.785-.878-.232-.591-.992-1.232-.667-.739-1.313-1.47-1.665-1.765C15.47 1.051 15.526.6 15.575.522l-.036.04c-.03-.12-.051-.22-.051-.22s-1.39 1.39-1.683 3.707c-.191 1.512.375 3.09 1.195 4.097.427.523.91.997 1.439 1.415.62.89.96 1.988.96 3.168a5.356 5.356 0 0 1-6.555 5.22c-1.396-.266-2.203-.97-2.604-1.449-.231-.274-.329-.473-.329-.473 1.25.448 2.634.354 3.475-.11.848-.47 1.36-.819 1.777-.682.41.137.736-.26.444-.671-.287-.411-1.035-1-2.144-.837-.848.124-1.626.726-2.737.143a2.369 2.369 0 0 1-.209-.122c-.073-.043.238.065.166.016a5.54 5.54 0 0 1-.699-.416c-.016-.014.168.053.151.04-1.04-.768-.91-1.286-.878-1.61a.932.932 0 0 1 .533-.729c.154.075.25.133.25.133l-.101-.184c.012-.004.024-.003.037-.008.125.054.404.195.55.282.192.121.252.229.252.229s.05-.025.013-.13c-.013-.044-.071-.18-.26-.32h.012c.112.058.219.125.32.2.053-.174.15-.355.128-.68-.013-.228-.007-.287-.052-.375-.04-.075.023-.105.092-.027a.724.724 0 0 0-.06-.178v-.006c.088-.272 1.843-.979 1.971-1.062.206-.129.382-.3.516-.503.098-.14.171-.335.19-.631.005-.134-.036-.24-.5-.342-.28-.06-.711-.12-1.377-.182-.485-.043-.77-.358-.932-.649-.03-.062-.06-.12-.09-.176a1.302 1.302 0 0 1-.069-.204c.29-.76.814-1.41 1.495-1.855.039-.032-.156.008-.117-.024.045-.037.343-.145.4-.169.068-.029-.294-.167-.615-.133-.325.033-.394.067-.568.134.073-.065.301-.15.247-.149-.35.05-.787.231-1.16.44-.001-.037.006-.073.022-.106-.174.066-.601.334-.725.561a.97.97 0 0 0 .007-.13c-.131.097-.25.21-.356.334l-.007.005C6.296 4.781 5.41 4.756 4.66 4.92c-.165-.148-.429-.371-.803-1.107-.024-.045-.039.091-.058.048-.147-.336-.233-.888-.22-1.268 0 0-.3.137-.549.709-.046.103-.076.16-.105.216-.014.017.03-.187.024-.176-.043.073-.155.175-.204.308-.034.097-.08.152-.111.275l-.007.011c-.003-.036.009-.148 0-.125a5.743 5.743 0 0 0-.3.726 6.773 6.773 0 0 0-.315 1.818c-.006.06 0 .126-.006.179-.317.362-.533.668-.615.827-.41.634-.861 1.62-1.3 3.182.195-.427.428-.835.697-1.22-.365.83-.717 2.131-.787 4.136.088-.415.201-.824.338-1.226a10.388 10.388 0 0 0 .938 4.865c.502 1.097 1.657 3.331 4.479 5.073 2.822 1.741.96.714 2.61 1.25.121.044.245.088.37.13a5.441 5.441 0 0 1-.114-.049c1.098.33 2.239.497 3.386.498 4.272.004 5.533-1.712 5.533-1.712l-.013.01c.06-.058.118-.117.174-.178-.674.636-2.213.68-2.788.634.981-.288 1.627-.532 2.883-1.013.146-.054.296-.116.45-.186l.05-.023.09-.042a8.517 8.517 0 0 0 1.714-1.073c1.261-1.008 1.537-1.99 1.679-2.637-.02.062-.082.207-.126.3-.325.695-1.045 1.123-1.827 1.488.372-.488.717-.997 1.034-1.523.256-.255.335-.651.527-.917Z"/><path fill="url(#i)" d="M19.852 19.537a8.072 8.072 0 0 0 1.325-1.952c.9-1.892 2.293-5.038 1.195-8.324-.865-2.597-2.055-4.017-3.564-5.404C16.355 1.604 15.67.598 15.67 0c0 0-2.831 3.156-1.603 6.448 1.228 3.292 3.743 3.171 5.407 6.607 1.957 4.042-1.584 8.454-4.513 9.689.18-.04 6.513-1.473 6.845-5.095-.009.067-.152 1.068-1.954 1.888Z"/><path fill="url(#j)" d="M11.649 7.79c.009-.214-.102-.358-1.87-.524-.729-.067-1.007-.74-1.092-1.023-.259.672-.366 1.378-.308 2.231.039.56.414 1.16.594 1.513 0 0 .04-.052.058-.071.338-.352 1.755-.889 1.888-.965.147-.093.705-.501.73-1.161Z"/><path fill="url(#k)" d="M3.861 3.816c-.024-.044-.039.092-.058.05-.147-.338-.234-.884-.213-1.27 0 0-.3.138-.549.71-.046.102-.076.16-.105.216-.014.016.03-.188.024-.177-.043.073-.155.175-.204.302-.04.103-.081.16-.112.287-.01.035.01-.154 0-.131-.578 1.116-.688 2.807-.627 2.734C3.248 5.223 4.659 4.91 4.659 4.91c-.15-.11-.477-.43-.798-1.095Z"/><path fill="url(#l)" d="M8.533 17.563c-1.7-.726-3.634-1.75-3.561-4.076.1-3.064 2.857-2.458 2.857-2.458-.104.024-.382.223-.48.434-.105.265-.295.86.281 1.486.905.98-1.859 2.326 2.406 4.867.108.059-1-.034-1.503-.252Z"/><path fill="url(#m)" d="M7.929 16.037c1.205.42 2.61.346 3.451-.119.563-.313 1.286-.815 1.73-.691-.385-.153-.676-.224-1.027-.24-.06 0-.131 0-.195-.009a3.29 3.29 0 0 0-.384.021c-.217.02-.458.157-.677.135-.012 0 .212-.092.195-.088-.116.024-.242.03-.375.046-.084.01-.157.02-.24.024-2.513.213-4.635-1.36-4.635-1.36-.18.609.809 1.811 2.159 2.281h-.002Z"/><path fill="url(#n)" d="M19.847 19.552c2.54-2.494 3.826-5.526 3.283-8.926 0 0 .217 1.744-.606 3.527.395-1.741.441-3.905-.61-6.146-1.402-2.991-3.708-4.565-4.588-5.222C15.992 1.79 15.439.777 15.428.568c-.398.817-1.604 3.615-.129 6.025 1.381 2.257 3.558 2.927 5.081 5 2.807 3.814-.533 7.96-.533 7.96Z"/><path fill="url(#o)" d="M19.483 13.062c-.888-1.834-1.995-2.634-3.044-3.501.122.17.152.23.22.341.922.984 2.283 3.382 1.295 6.393-1.86 5.668-9.295 3-10.076 2.25.315 3.28 5.805 4.85 9.38 2.723 2.035-1.927 3.68-5.2 2.225-8.206Z"/></g><defs><radialGradient id="b" cx="0" cy="0" r="1" gradientTransform="matrix(8.35777 .32991 -.48628 12.3192 22.86 7.42)" gradientUnits="userSpaceOnUse"><stop offset=".1" stop-color="#FFEA00"/><stop offset=".17" stop-color="#FFDE00"/><stop offset=".28" stop-color="#FFBF00"/><stop offset=".43" stop-color="#FF8E00"/><stop offset=".77" stop-color="#FF272D"/><stop offset=".87" stop-color="#E0255A"/><stop offset=".95" stop-color="#CC2477"/><stop offset="1" stop-color="#C42482"/></radialGradient><radialGradient id="c" cx="0" cy="0" r="1" gradientTransform="translate(15.251 3.74) scale(23.7369)" gradientUnits="userSpaceOnUse"><stop stop-color="#00CCDA"/><stop offset=".22" stop-color="#0083FF"/><stop offset=".26" stop-color="#007AF9"/><stop offset=".33" stop-color="#005FE7"/><stop offset=".44" stop-color="#2639AD"/><stop offset=".52" stop-color="#401E84"/><stop offset=".57" stop-color="#4A1475"/></radialGradient><radialGradient id="e" cx="0" cy="0" r="1" gradientTransform="rotate(5.618 -150.747 247.81) scale(7.97993)" gradientUnits="userSpaceOnUse"><stop stop-color="#FFEA00"/><stop offset=".5" stop-color="#FF272D"/><stop offset="1" stop-color="#C42482"/></radialGradient><radialGradient id="f" cx="0" cy="0" r="1" gradientTransform="rotate(5.618 -72.407 244.277) scale(13.3257)" gradientUnits="userSpaceOnUse"><stop stop-color="#FFE900"/><stop offset=".16" stop-color="#FFAF0E"/><stop offset=".32" stop-color="#FF7A1B"/><stop offset=".47" stop-color="#FF4E26"/><stop offset=".62" stop-color="#FF2C2E"/><stop offset=".76" stop-color="#FF1434"/><stop offset=".89" stop-color="#FF0538"/><stop offset="1" stop-color="#FF0039"/></radialGradient><radialGradient id="g" cx="0" cy="0" r="1" gradientTransform="rotate(5.618 -199.239 257.31) scale(12.2278)" gradientUnits="userSpaceOnUse"><stop stop-color="#FF272D"/><stop offset=".5" stop-color="#C42482"/><stop offset=".99" stop-color="#620700"/></radialGradient><radialGradient id="h" cx="0" cy="0" r="1" gradientTransform="translate(17.444 9.61) scale(19.0776)" gradientUnits="userSpaceOnUse"><stop offset=".16" stop-color="#FFEA00"/><stop offset=".23" stop-color="#FFDE00"/><stop offset=".37" stop-color="#FFBF00"/><stop offset=".54" stop-color="#FF8E00"/><stop offset=".76" stop-color="#FF272D"/><stop offset=".8" stop-color="#F92433"/><stop offset=".84" stop-color="#E91C45"/><stop offset=".89" stop-color="#CF0E62"/><stop offset=".94" stop-color="#B5007F"/></radialGradient><radialGradient id="i" cx="0" cy="0" r="1" gradientTransform="translate(16.35 .763) scale(21.7427)" gradientUnits="userSpaceOnUse"><stop offset=".28" stop-color="#FFEA00"/><stop offset=".4" stop-color="#FD0"/><stop offset=".63" stop-color="#FFBA00"/><stop offset=".86" stop-color="#FF9100"/><stop offset=".93" stop-color="#FF6711"/><stop offset=".99" stop-color="#FF4A1D"/></radialGradient><linearGradient id="d" x1="13.186" x2="8.517" y1="17.785" y2="2.511" gradientUnits="userSpaceOnUse"><stop stop-color="#000F43" stop-opacity=".4"/><stop offset=".48" stop-color="#001962" stop-opacity=".17"/><stop offset="1" stop-color="#002079" stop-opacity="0"/></linearGradient><linearGradient id="j" x1="3.624" x2="12.989" y1="8.91" y2="7.48" gradientUnits="userSpaceOnUse"><stop stop-color="#C42482" stop-opacity=".5"/><stop offset=".47" stop-color="#FF272D" stop-opacity=".5"/><stop offset=".49" stop-color="#FF2C2C" stop-opacity=".51"/><stop offset=".68" stop-color="#FF7A1A" stop-opacity=".72"/><stop offset=".83" stop-color="#FFB20D" stop-opacity=".87"/><stop offset=".94" stop-color="#FFD605" stop-opacity=".96"/><stop offset="1" stop-color="#FFE302"/></linearGradient><linearGradient id="k" x1="3.537" x2="2.56" y1="6.454" y2="2.944" gradientUnits="userSpaceOnUse"><stop stop-color="#891551" stop-opacity=".6"/><stop offset="1" stop-color="#C42482" stop-opacity="0"/></linearGradient><linearGradient id="l" x1="5.337" x2="7.348" y1="11.381" y2="14.192" gradientUnits="userSpaceOnUse"><stop offset=".01" stop-color="#891551" stop-opacity=".5"/><stop offset=".48" stop-color="#FF272D" stop-opacity=".5"/><stop offset="1" stop-color="#FF272D" stop-opacity="0"/></linearGradient><linearGradient id="m" x1="9.255" x2="9.439" y1="16.274" y2="14.469" gradientUnits="userSpaceOnUse"><stop stop-color="#C42482"/><stop offset=".08" stop-color="#C42482" stop-opacity=".81"/><stop offset=".21" stop-color="#C42482" stop-opacity=".57"/><stop offset=".33" stop-color="#C42482" stop-opacity=".36"/><stop offset=".45" stop-color="#C42482" stop-opacity=".2"/><stop offset=".56" stop-color="#C42482" stop-opacity=".09"/><stop offset=".67" stop-color="#C42482" stop-opacity=".02"/><stop offset=".77" stop-color="#C42482" stop-opacity="0"/></linearGradient><linearGradient id="n" x1="15.135" x2="22.59" y1=".881" y2="17.552" gradientUnits="userSpaceOnUse"><stop stop-color="#FFF14F"/><stop offset=".27" stop-color="#FFEE4C"/><stop offset=".45" stop-color="#FFE643"/><stop offset=".61" stop-color="#FFD834"/><stop offset=".76" stop-color="#FFC41E"/><stop offset=".89" stop-color="#FFAB02"/><stop offset=".9" stop-color="#FFA900"/><stop offset=".95" stop-color="#FFA000"/><stop offset="1" stop-color="#FF9100"/></linearGradient><linearGradient id="o" x1="16.607" x2="13.076" y1="10.469" y2="19.95" gradientUnits="userSpaceOnUse"><stop stop-color="#FF8E00"/><stop offset=".04" stop-color="#FF8E00" stop-opacity=".86"/><stop offset=".08" stop-color="#FF8E00" stop-opacity=".73"/><stop offset=".13" stop-color="#FF8E00" stop-opacity=".63"/><stop offset=".18" stop-color="#FF8E00" stop-opacity=".56"/><stop offset=".23" stop-color="#FF8E00" stop-opacity=".51"/><stop offset=".28" stop-color="#FF8E00" stop-opacity=".5"/><stop offset=".39" stop-color="#FF8E00" stop-opacity=".48"/><stop offset=".52" stop-color="#FF8E00" stop-opacity=".42"/><stop offset=".68" stop-color="#FF8E00" stop-opacity=".31"/><stop offset=".84" stop-color="#FF8E00" stop-opacity=".17"/><stop offset="1" stop-color="#FF8E00" stop-opacity="0"/></linearGradient><clipPath id="a"><path fill="#fff" d="M0 0h23.253v24H0z"/></clipPath></defs></svg>
