<svg xmlns="http://www.w3.org/2000/svg" width="244" height="53" fill="none"><path fill="url(#a)" d="M38.72 1H5.28A5.28 5.28 0 0 0 0 6.28v33.44A5.28 5.28 0 0 0 5.28 45h33.44A5.28 5.28 0 0 0 44 39.72V6.28A5.28 5.28 0 0 0 38.72 1Z"/><path fill="#1E293B" fill-rule="evenodd" d="M10.066 12.704a1.32 1.32 0 0 1 1.867 0l4.4 4.4a1.32 1.32 0 0 1 0 1.866l-4.4 4.4a1.32 1.32 0 1 1-1.867-1.866l3.467-3.467-3.467-3.467a1.32 1.32 0 0 1 0-1.866Zm23.955 0a1.32 1.32 0 0 1 0 1.866l-3.467 3.467 3.467 3.467a1.32 1.32 0 1 1-1.867 1.866l-4.4-4.4a1.32 1.32 0 0 1 0-1.866l4.4-4.4a1.32 1.32 0 0 1 1.867 0Zm-14.175 8.473a1.32 1.32 0 0 1 1.653.866c.05.159.168.283.448.382a1.864 1.864 0 0 0 .488.1 1.615 1.615 0 0 0 .413-.092c.248-.093.458-.243.582-.525a1.32 1.32 0 1 1 2.419 1.058c-.492 1.125-1.382 1.68-2.08 1.94a4.24 4.24 0 0 1-1.273.258h-.033l-.013.001H22.44c-.001 0-.002 0-.002-1.32v1.32h-.054a4.308 4.308 0 0 1-.395-.032 4.498 4.498 0 0 1-.928-.22c-.71-.253-1.692-.833-2.082-2.082a1.32 1.32 0 0 1 .866-1.654Z" clip-rule="evenodd"/><g filter="url(#b)"><path fill="#fff" d="M58.699 1h11.536L82.42 30.563h.519L95.123 1h11.536v44h-9.073V16.361h-.367l-11.45 28.424h-6.18L68.14 16.254h-.366V45h-9.074V1Zm70.571 43.558c-3.414 0-6.352-.688-8.815-2.063-2.448-1.39-4.335-3.351-5.66-5.886-1.325-2.55-1.988-5.565-1.988-9.045 0-3.395.663-6.374 1.988-8.938 1.325-2.564 3.19-4.562 5.596-5.994 2.419-1.432 5.257-2.149 8.512-2.149 2.189 0 4.227.351 6.114 1.053a13.566 13.566 0 0 1 4.968 3.116c1.426 1.389 2.535 3.136 3.327 5.242.793 2.09 1.189 4.54 1.189 7.347v2.514H116.48v-5.672h19.357c0-1.317-.288-2.485-.864-3.502a6.17 6.17 0 0 0-2.398-2.385c-1.008-.587-2.182-.88-3.521-.88-1.397 0-2.636.322-3.716.966a6.795 6.795 0 0 0-2.506 2.557c-.605 1.06-.915 2.242-.929 3.545v5.392c0 1.633.302 3.044.907 4.233.62 1.189 1.491 2.105 2.614 2.75 1.124.645 2.456.967 3.997.967 1.023 0 1.959-.143 2.809-.43a5.843 5.843 0 0 0 2.182-1.289 5.601 5.601 0 0 0 1.382-2.105l8.512.558c-.432 2.034-1.318 3.81-2.657 5.328-1.325 1.504-3.039 2.679-5.142 3.524-2.088.83-4.501 1.246-7.237 1.246Zm21.284.442V12h8.922v5.758h.346c.604-2.048 1.62-3.595 3.046-4.64 1.426-1.06 3.067-1.59 4.925-1.59.461 0 .958.028 1.491.085.533.058 1.001.136 1.404.237v8.12c-.432-.128-1.029-.243-1.793-.343-.763-.1-1.462-.15-2.096-.15-1.353 0-2.563.293-3.629.88a6.507 6.507 0 0 0-2.506 2.407c-.605 1.031-.908 2.22-.908 3.566V45h-9.202ZM184.65 1v44h-9.203V1h9.203Zm7.372 44V12h9.203v33h-9.203Zm4.623-34.714c-1.368 0-2.542-.451-3.521-1.353-.965-.917-1.448-2.013-1.448-3.288 0-1.26.483-2.341 1.448-3.244.979-.916 2.153-1.375 3.521-1.375 1.369 0 2.535.459 3.5 1.375.979.903 1.469 1.984 1.469 3.244 0 1.275-.49 2.37-1.469 3.288-.965.902-2.131 1.353-3.5 1.353Zm21.156 15.636V45h-9.203V12h8.771v5.822h.389c.734-1.919 1.966-3.437 3.694-4.554 1.728-1.132 3.824-1.698 6.287-1.698 2.304 0 4.313.502 6.027 1.504 1.714 1.003 3.046 2.435 3.997 4.297.95 1.848 1.426 4.053 1.426 6.617V45h-9.203V25.621c.014-2.02-.505-3.595-1.556-4.726-1.051-1.146-2.499-1.72-4.342-1.72-1.239 0-2.334.266-3.284.796-.936.53-1.671 1.303-2.204 2.32-.518 1.003-.784 2.213-.799 3.63Z"/></g><defs><radialGradient id="a" cx="0" cy="0" r="1" gradientTransform="matrix(44 44 -44 44 0 1)" gradientUnits="userSpaceOnUse"><stop offset=".576" stop-color="#FAFAF9"/><stop offset=".753" stop-color="#D5BAEC"/><stop offset="1" stop-color="#7E22CE"/></radialGradient><filter id="b" width="188.49" height="52" x="54.699" y="1" color-interpolation-filters="sRGB" filterUnits="userSpaceOnUse"><feFlood flood-opacity="0" result="BackgroundImageFix"/><feColorMatrix in="SourceAlpha" result="hardAlpha" values="0 0 0 0 0 0 0 0 0 0 0 0 0 0 0 0 0 0 127 0"/><feOffset dy="4"/><feGaussianBlur stdDeviation="2"/><feComposite in2="hardAlpha" operator="out"/><feColorMatrix values="0 0 0 0 0 0 0 0 0 0 0 0 0 0 0 0 0 0 0.25 0"/><feBlend in2="BackgroundImageFix" result="effect1_dropShadow_13_1291"/><feBlend in="SourceGraphic" in2="effect1_dropShadow_13_1291" result="shape"/></filter></defs></svg>
