<svg xmlns="http://www.w3.org/2000/svg" width="1512" height="359" fill="none"><path stroke="url(#a)" stroke-miterlimit="10" d="M924.592 349.794c-87.936-.733-174.112-15.584-261.681-21.984-87.936-6.375-174.406 5.789-261.706 15.487-67.49-43.528-121.961-125.821-200.59-141.478-47.436-9.453-61.653-57.842-87.667-94.336C83.05 65.568 38.668 34.155 0 .495h1512l-293.7 174.65c-48.49 28.994-94.88 55.106-135.84 94.628-19.66 18.955-37.47 39.864-61.95 52.859-29.771 15.804-63.92 17.172-95.918 27.162Z"/><path stroke="url(#b)" stroke-miterlimit="10" d="M1451.16 36.671H41.528"/><path stroke="url(#c)" stroke-miterlimit="10" d="M1398.03 68.28H77.847"/><path stroke="url(#d)" stroke-miterlimit="10" d="M1351.25 96.102c-112.75 0-221.62-4.47-333.64-16.757-99.759-10.943-189.185-.513-287.086 18.1-94.824 18.051-190.942 14.656-287.085 18.442a2085.945 2085.945 0 0 1-333.641-12.8"/><path stroke="url(#e)" stroke-miterlimit="10" d="M1309.72 120.771c-52.81 0-106.06 2.858-158.21-6.888-53.08-9.917-104.03-28.481-156.597-40.523-105.473-24.158-176.041 9.966-270.963 52.712-83.978 37.788-167.394 35.101-257.406 43.308-117.589 10.723-213.707 10.846-328.414-21.642"/><path stroke="url(#f)" stroke-miterlimit="10" d="M1272.62 142.853c-54.55 0-104.08-1.587-156.84-17.66-47.37-14.461-93-34.588-141.238-46.19-101.615-24.427-171.157 27.137-256.479 74.036-77.725 42.747-157.282 38.252-243.068 47.974-111.384 12.604-203.497 20.2-311.486-16.464"/><path stroke="url(#g)" stroke-miterlimit="10" d="M1239.28 162.663c-98.46-.513-186.74-37.226-282.931-50.929-90.769-12.897-161.826 28.285-243.557 60.48-75.527 29.727-150.369 27.406-230.073 33.928-101.517 8.354-195.998 17.099-296.44-6.107"/><path stroke="url(#h)" stroke-miterlimit="10" d="M1209.11 180.616c-90.6-2.442-178.97-23.669-269.351-27.601-80.388-3.493-154.009 18.026-231.783 34.197-72.181 14.9-145.02 12.042-218.324 15.266-94.531 4.128-188.451 10.259-282.81.244"/><path stroke="url(#i)" stroke-miterlimit="10" d="M1181.77 197.153c-160.67-2.1-317.539-7.328-478.095 2.443-157.99 9.429-319.987 7.059-478.124 3.933"/><path stroke="url(#j)" stroke-miterlimit="10" d="M1156.84 211.614c-304.749.146-609.494.146-914.239 0"/><path stroke="url(#k)" stroke-miterlimit="10" d="M1133.98 225.805c-145.976 4.153-291.876 5.643-437.897 7.597-146.022 1.954-291.75-8.183-437.87-8.183"/><path stroke="url(#l)" stroke-miterlimit="10" d="M1112.97 241.756c-139.937 11.212-279.9 14.656-420.133 19.248-141.674 4.641-279.097-23.376-420.136-23.229"/><path stroke="url(#m)" stroke-miterlimit="10" d="M1093.57 259.026c-134.049 18.198-268.835 22.692-403.889 30.069-139.084 7.596-266.249-37.593-403.892-39.791"/><path stroke="url(#n)" stroke-miterlimit="10" d="M1075.64 276.515c-128.063 23.449-258.916 28.554-388.792 37.763-61.774 4.373-119.103 3.664-179.828-10.918-69.981-16.83-136.617-38.887-208.968-43.406"/><path stroke="url(#o)" stroke-miterlimit="10" d="M1059.01 293.076c-122.329 26.307-250.104 30.802-374.801 41.281-57.769 4.885-110.335 5.007-166.589-10.088-70.055-18.809-135.494-45.824-208.211-54.056"/><path stroke="url(#p)" stroke-miterlimit="10" d="M1043.52 307.512c-116.925 26.527-242.135 30.436-361.776 40.768-52.224 4.519-102.591 5.716-153.887-7.792-70.495-18.613-135.201-49.561-207.943-60.48"/><path stroke="url(#q)" stroke-miterlimit="10" d="M1029.09 318.504c-113.39 23.376-234.082 26.454-349.619 35.833-127.018 10.333-227.362-42.111-349.616-64.363"/><path stroke="url(#r)" stroke-miterlimit="10" d="M1015.58 326.223c-110.457 19.126-226.287 20.958-338.258 28.139-120.692 7.646-221.427-33.879-338.234-55.179"/><path stroke="url(#s)" stroke-miterlimit="10" d="M1002.93 331.426c-107.675 14.656-218.987 14.656-327.611 19.297-114.414 4.885-215.735-25.648-327.608-43.626"/><path stroke="url(#t)" stroke-miterlimit="10" d="M991.032 334.821c-105.034 10.576-212.119 8.402-317.544 10.43-108.576 2.076-210.312-18.003-317.545-31.486"/><path stroke="url(#u)" stroke-miterlimit="10" d="M979.876 337.019c-205.524 13.85-411.831-.488-616.403-17.709"/><path stroke="url(#v)" stroke-miterlimit="10" d="M969.316 338.558c-198.563 7.841-400.204-6.522-598.645-14.656"/><path stroke="url(#w)" stroke-miterlimit="10" d="M959.376 339.902c-193.605 3.273-387.967-12.018-581.913-11.823"/><path stroke="url(#x)" stroke-miterlimit="10" d="M949.971 341.416c-94.775.122-188.524-10.186-283.03-15.438-94.506-5.252-188.939 2.223-283.054 5.838"/><path stroke="url(#y)" stroke-miterlimit="10" d="M941.079 343.443c-92.454-.635-183.492-12.775-275.555-18.784-92.064-6.009-183.907 4.446-275.556 10.846"/><path stroke="url(#z)" stroke-miterlimit="10" d="M932.63 346.204c-90.207-.88-178.656-14.485-268.447-20.885-89.792-6.4-179.047 5.545-268.448 13.996"/><path stroke="url(#A)" stroke-miterlimit="10" d="M421.356 341.245c-39.082-23.62-66.44-50.538-97.535-83.807-11.724-12.555-24.206-28.164-38.227-38.203-21.496-15.389-20.47-8.965-45.849-11.285-45.873-4.153-54.251-45.775-74.232-83.783C139.157 73.995 98.438 39.236 58.037.496"/><path stroke="url(#B)" stroke-miterlimit="10" d="M441.483 338.925c-36.762-20.006-57.549-37.519-82.708-71.692-11.041-14.973-22.13-33.538-36.444-45.726-20.983-17.856-21.007-6.718-43.431-10.577-21.837-3.737-14.827 9.233-34.685-10.43-18.955-18.784-25.086-54.447-35.956-78.165-22.643-49.341-55.253-82.44-91.941-121.864"/><path stroke="url(#C)" stroke-miterlimit="10" d="M461.661 336.58c-40.792-19.151-53.25-29.679-77.188-70.471a307.773 307.773 0 0 0-33.855-51.686c-10.08-12.914-20.925-13.834-32.536-2.76-12.099 11.936-22.945 10.495-32.536-4.324a816.883 816.883 0 0 1-33.953-93.138C233.884 68.694 204.963 37.673 174.405.496"/><path stroke="url(#D)" stroke-miterlimit="10" d="M481.746 334.259a212.562 212.562 0 0 0-37.446-9.551 187.114 187.114 0 0 1-33.538-61.066 222.26 222.26 0 0 0-31.07-56.181c-8.826-4.201-16.333-3.053-22.521 3.444-6.123 6.253-13.622 7.784-22.497 4.592a284.955 284.955 0 0 1-31.071-86.128C287.506 77.609 263.568 43.999 232.62.617"/><path stroke="url(#E)" stroke-miterlimit="10" d="M501.873 332.036a134.29 134.29 0 0 0-33.855-1.441 237.227 237.227 0 0 1-30.143-72.156 17139.98 17139.98 0 0 1-14.167-36.787c-5.081-18.857-14.208-23.099-27.382-12.726-9.771 10.194-16.602 9.095-20.494-3.297a97.098 97.098 0 0 1-21.056-61.189C339.681 88.26 320.408 49.519 290.779.495"/><path stroke="url(#F)" stroke-miterlimit="10" d="M521.994 330.009a45.27 45.27 0 0 0-27.749 8.256c-15.828-34.075-17.098-84.906-36.322-115.586-31.974-50.856-14.021 9.551-33.611-11.212-27.919-29.58-23.131-87.618-34.978-123.549-10.015-30.41-26.259-58.868-40.402-87.422"/><path stroke="url(#G)" stroke-miterlimit="10" d="M542.115 328.275a58.754 58.754 0 0 0-23.205 16.243c-7.89-26.869-12.213-113.729-30.215-132.758-11.261-11.968-15.658.001-23.499-8.793-17.44-19.541-19.883-85.737-24.426-104.814-7.939-33.709-21.3-65.439-33.758-97.706"/><path stroke="url(#H)" stroke-miterlimit="10" d="M562.249 326.882c-6.302 7.328-12.213 14.656-17.953 22.497-6.302-37.495-.489-98.39-19.541-128.215 3.159-11.789.716-17.88-7.328-18.271a61.297 61.297 0 0 0-10.968-1.416c-12.75-25.795-10.967-63.509-15.12-91.136-5.715-38.007-15.852-72.986-26.087-109.919"/><path stroke="url(#I)" stroke-miterlimit="10" d="M582.371 325.93a226.638 226.638 0 0 0-10.919 28.579C559.239 233.353 543.875 121.822 523.381.496"/><path stroke="url(#J)" stroke-miterlimit="10" d="M602.529 325.368A515.423 515.423 0 0 0 598.62 357 14520.42 14520.42 0 0 0 581.522.373"/><path stroke="url(#K)" stroke-miterlimit="10" d="M622.656 325.734a603.856 603.856 0 0 1 3.151 31.071A18267.44 18267.44 0 0 1 639.682.495"/><path stroke="url(#L)" stroke-miterlimit="10" d="M642.784 326.589a206.934 206.934 0 0 1 10.186 28.823c11.285-119.201 26.088-236.4 44.872-354.917"/><path stroke="url(#M)" stroke-miterlimit="10" d="M662.911 327.811a179.954 179.954 0 0 1 17.245 25.452A3525.162 3525.162 0 0 1 756 .496"/><path stroke="url(#N)" stroke-miterlimit="10" d="M683.037 329.569a52.187 52.187 0 0 1 22.546 22.986c20.493-70.617 30.044-142.847 52.126-213.317C772.56 91.826 796.596 47.272 814.158.495"/><path stroke="url(#O)" stroke-miterlimit="10" d="M703.161 331.547a36.647 36.647 0 0 1 27.186 18.98c34.197-68.687 44.212-157.063 68.395-230.904 16.316-49.806 14.778-16.659 34.197-43.137 16.536-22.521 27.455-51.076 39.522-75.99"/><path stroke="url(#P)" stroke-miterlimit="10" d="M723.291 333.746a45.603 45.603 0 0 1 33.22 14.412c43.039-72.498 54.007-168.104 83.758-247.026 23.914-63.508 8.794-13.166 41.867-25.672 15.828-5.984 41.281-62.996 48.365-74.965"/><path stroke="url(#Q)" stroke-miterlimit="10" d="M743.418 336.091a43.532 43.532 0 0 1 36.86 10.064c19.199-16.024 30.199-37.031 33-63.02 16.61-47.925 36.64-93.676 52.737-141.821A770.385 770.385 0 0 1 888.194 72.7c9.494-15.128 19.68-15.755 30.558-1.88 16.284 8.76 27.292 2.817 33.024-17.832L988.611.496"/><path stroke="url(#R)" stroke-miterlimit="10" d="M763.55 338.485a46.415 46.415 0 0 1 40.059 5.838c20.388-10.047 32.406-27.04 36.054-50.978 21.984-51.637 47.387-101.761 65.512-154.815a187.76 187.76 0 0 1 32.072-73.28 42.84 42.84 0 0 1 33.415 10.113c32.778-3.126 56.668-50.856 76.118-74.818"/><path stroke="url(#S)" stroke-miterlimit="10" d="M783.699 340.83c21.153-9.453 33.879 5.715 52.81-2.858 20.493-9.307 28.603-37.519 37.958-56.572 23.523-47.558 48.853-92.405 69.787-141.136 8.891-20.616 15.95-62.776 42.917-67.906 10.992-2.076 24.669 9.111 36.009 7.06 30.06-5.497 62.28-57.818 81.7-78.923"/><path stroke="url(#T)" stroke-miterlimit="10" d="M803.831 343.101c20.69-10.356 36.176 1.588 55.986-4.885 26.649-8.745 37.959-42.917 50.196-66.147 23.132-43.772 51.003-83.709 73.451-127.97 10.577-20.885 21.736-49.342 45.336-57.207 12.53-4.177 25.06 0 37.81-3.42 37.08-10.137 69.1-56.352 96.46-83.05"/><path stroke="url(#U)" stroke-miterlimit="10" d="M823.952 345.154c24.256-12.824 46.093 2.76 69.958-9.307 19.101-9.771 31.754-37.446 41.891-54.642 26.649-45.213 57.598-87.007 86.789-130.56 32.63-48.706 51.29-40.841 97.07-64.559 37.49-19.37 70.15-57.964 101.56-85.493"/><path stroke="url(#V)" stroke-miterlimit="10" d="M844.084 346.937c24.426-11.798 49.708.415 73.06-10.088 26.185-11.774 39.473-43.382 54.373-65.659 27.089-40.401 58.943-76.846 90.203-114.145 29.66-35.369 62.78-41.159 100.69-63.729 41.53-24.72 79.29-62.58 116.98-92.82"/><path stroke="url(#W)" stroke-miterlimit="10" d="M864.201 348.353c24.695-7.645 52.59-2.442 75.893-11.847 26.381-10.772 40.548-38.545 56.719-59.991 31.197-41.525 65.557-77.31 104.057-112.118 34-30.728 77.68-47.46 114.97-74.085C1256.83 61 1296.99 30.418 1337.54.496"/><path stroke="url(#X)" stroke-miterlimit="10" d="M884.241 349.355c25.696-8.183 53.738-4.885 78.482-14.436 30.826-12.042 50.347-45.262 70.197-69.42 30.27-36.884 67.96-68.15 106.99-95.605 83.27-58.624 171.4-111.825 255.67-169.398"/><path stroke="url(#Y)" stroke-miterlimit="10" d="M904.462 349.794c26.405-8.402 55.35-7.328 80.876-17.294 31.392-12.335 50.632-40.352 72.572-64.217 35.54-38.643 77.06-66.367 121.25-94.237A163351.29 163351.29 0 0 0 1453.84.496"/><defs><linearGradient id="a" x1="1512" x2="1358.79" y1="349.794" y2="-313.409" gradientUnits="userSpaceOnUse"><stop stop-color="#7E22CE" stop-opacity=".3"/><stop offset=".49" stop-color="#C026D3" stop-opacity=".5"/><stop offset="1" stop-color="#5B21B6" stop-opacity=".7"/></linearGradient><linearGradient id="b" x1="1451.16" x2="1451.16" y1="36.671" y2="34.671" gradientUnits="userSpaceOnUse"><stop stop-color="#7E22CE" stop-opacity=".3"/><stop offset=".49" stop-color="#C026D3" stop-opacity=".5"/><stop offset="1" stop-color="#5B21B6" stop-opacity=".7"/></linearGradient><linearGradient id="c" x1="1398.03" x2="1398.02" y1="68.279" y2="66.279" gradientUnits="userSpaceOnUse"><stop stop-color="#7E22CE" stop-opacity=".3"/><stop offset=".49" stop-color="#C026D3" stop-opacity=".5"/><stop offset="1" stop-color="#5B21B6" stop-opacity=".7"/></linearGradient><linearGradient id="d" x1="1351.25" x2="1348.3" y1="117.707" y2="32.175" gradientUnits="userSpaceOnUse"><stop stop-color="#7E22CE" stop-opacity=".3"/><stop offset=".49" stop-color="#C026D3" stop-opacity=".5"/><stop offset="1" stop-color="#5B21B6" stop-opacity=".7"/></linearGradient><linearGradient id="e" x1="1309.72" x2="1289.07" y1="175.815" y2="-43.196" gradientUnits="userSpaceOnUse"><stop stop-color="#7E22CE" stop-opacity=".3"/><stop offset=".49" stop-color="#C026D3" stop-opacity=".5"/><stop offset="1" stop-color="#5B21B6" stop-opacity=".7"/></linearGradient><linearGradient id="f" x1="1272.62" x2="1238.47" y1="211.41" y2="-61.686" gradientUnits="userSpaceOnUse"><stop stop-color="#7E22CE" stop-opacity=".3"/><stop offset=".49" stop-color="#C026D3" stop-opacity=".5"/><stop offset="1" stop-color="#5B21B6" stop-opacity=".7"/></linearGradient><linearGradient id="g" x1="1239.28" x2="1218.3" y1="214.944" y2="5.775" gradientUnits="userSpaceOnUse"><stop stop-color="#7E22CE" stop-opacity=".3"/><stop offset=".49" stop-color="#C026D3" stop-opacity=".5"/><stop offset="1" stop-color="#5B21B6" stop-opacity=".7"/></linearGradient><linearGradient id="h" x1="1209.11" x2="1202.98" y1="208.152" y2="97.463" gradientUnits="userSpaceOnUse"><stop stop-color="#7E22CE" stop-opacity=".3"/><stop offset=".49" stop-color="#C026D3" stop-opacity=".5"/><stop offset="1" stop-color="#5B21B6" stop-opacity=".7"/></linearGradient><linearGradient id="i" x1="1181.77" x2="1181.45" y1="206.289" y2="181.445" gradientUnits="userSpaceOnUse"><stop stop-color="#7E22CE" stop-opacity=".3"/><stop offset=".49" stop-color="#C026D3" stop-opacity=".5"/><stop offset="1" stop-color="#5B21B6" stop-opacity=".7"/></linearGradient><linearGradient id="j" x1="1156.84" x2="1156.84" y1="211.724" y2="211.504" gradientUnits="userSpaceOnUse"><stop stop-color="#7E22CE" stop-opacity=".3"/><stop offset=".49" stop-color="#C026D3" stop-opacity=".5"/><stop offset="1" stop-color="#5B21B6" stop-opacity=".7"/></linearGradient><linearGradient id="k" x1="1133.98" x2="1133.81" y1="233.652" y2="216.788" gradientUnits="userSpaceOnUse"><stop stop-color="#7E22CE" stop-opacity=".3"/><stop offset=".49" stop-color="#C026D3" stop-opacity=".5"/><stop offset="1" stop-color="#5B21B6" stop-opacity=".7"/></linearGradient><linearGradient id="l" x1="1112.97" x2="1111.63" y1="261.523" y2="214.063" gradientUnits="userSpaceOnUse"><stop stop-color="#7E22CE" stop-opacity=".3"/><stop offset=".49" stop-color="#C026D3" stop-opacity=".5"/><stop offset="1" stop-color="#5B21B6" stop-opacity=".7"/></linearGradient><linearGradient id="m" x1="1093.57" x2="1089.49" y1="289.954" y2="208.859" gradientUnits="userSpaceOnUse"><stop stop-color="#7E22CE" stop-opacity=".3"/><stop offset=".49" stop-color="#C026D3" stop-opacity=".5"/><stop offset="1" stop-color="#5B21B6" stop-opacity=".7"/></linearGradient><linearGradient id="n" x1="1075.64" x2="1067.43" y1="316.631" y2="203.875" gradientUnits="userSpaceOnUse"><stop stop-color="#7E22CE" stop-opacity=".3"/><stop offset=".49" stop-color="#C026D3" stop-opacity=".5"/><stop offset="1" stop-color="#5B21B6" stop-opacity=".7"/></linearGradient><linearGradient id="o" x1="1059.01" x2="1047.1" y1="337.294" y2="204.197" gradientUnits="userSpaceOnUse"><stop stop-color="#7E22CE" stop-opacity=".3"/><stop offset=".49" stop-color="#C026D3" stop-opacity=".5"/><stop offset="1" stop-color="#5B21B6" stop-opacity=".7"/></linearGradient><linearGradient id="p" x1="1043.52" x2="1029.58" y1="351.38" y2="210.011" gradientUnits="userSpaceOnUse"><stop stop-color="#7E22CE" stop-opacity=".3"/><stop offset=".49" stop-color="#C026D3" stop-opacity=".5"/><stop offset="1" stop-color="#5B21B6" stop-opacity=".7"/></linearGradient><linearGradient id="q" x1="1029.09" x2="1016.85" y1="355.67" y2="225.427" gradientUnits="userSpaceOnUse"><stop stop-color="#7E22CE" stop-opacity=".3"/><stop offset=".49" stop-color="#C026D3" stop-opacity=".5"/><stop offset="1" stop-color="#5B21B6" stop-opacity=".7"/></linearGradient><linearGradient id="r" x1="1015.58" x2="1006.34" y1="355.289" y2="243.843" gradientUnits="userSpaceOnUse"><stop stop-color="#7E22CE" stop-opacity=".3"/><stop offset=".49" stop-color="#C026D3" stop-opacity=".5"/><stop offset="1" stop-color="#5B21B6" stop-opacity=".7"/></linearGradient><linearGradient id="s" x1="1002.93" x2="997.004" y1="351.245" y2="263.348" gradientUnits="userSpaceOnUse"><stop stop-color="#7E22CE" stop-opacity=".3"/><stop offset=".49" stop-color="#C026D3" stop-opacity=".5"/><stop offset="1" stop-color="#5B21B6" stop-opacity=".7"/></linearGradient><linearGradient id="t" x1="991.032" x2="987.889" y1="345.4" y2="282.287" gradientUnits="userSpaceOnUse"><stop stop-color="#7E22CE" stop-opacity=".3"/><stop offset=".49" stop-color="#C026D3" stop-opacity=".5"/><stop offset="1" stop-color="#5B21B6" stop-opacity=".7"/></linearGradient><linearGradient id="u" x1="979.876" x2="978.122" y1="342.579" y2="296.108" gradientUnits="userSpaceOnUse"><stop stop-color="#7E22CE" stop-opacity=".3"/><stop offset=".49" stop-color="#C026D3" stop-opacity=".5"/><stop offset="1" stop-color="#5B21B6" stop-opacity=".7"/></linearGradient><linearGradient id="v" x1="969.316" x2="968.36" y1="340.826" y2="307.005" gradientUnits="userSpaceOnUse"><stop stop-color="#7E22CE" stop-opacity=".3"/><stop offset=".49" stop-color="#C026D3" stop-opacity=".5"/><stop offset="1" stop-color="#5B21B6" stop-opacity=".7"/></linearGradient><linearGradient id="w" x1="959.376" x2="958.857" y1="340.361" y2="315.804" gradientUnits="userSpaceOnUse"><stop stop-color="#7E22CE" stop-opacity=".3"/><stop offset=".49" stop-color="#C026D3" stop-opacity=".5"/><stop offset="1" stop-color="#5B21B6" stop-opacity=".7"/></linearGradient><linearGradient id="x" x1="949.971" x2="948.921" y1="341.417" y2="306.947" gradientUnits="userSpaceOnUse"><stop stop-color="#7E22CE" stop-opacity=".3"/><stop offset=".49" stop-color="#C026D3" stop-opacity=".5"/><stop offset="1" stop-color="#5B21B6" stop-opacity=".7"/></linearGradient><linearGradient id="y" x1="941.079" x2="939.544" y1="343.443" y2="302.338" gradientUnits="userSpaceOnUse"><stop stop-color="#7E22CE" stop-opacity=".3"/><stop offset=".49" stop-color="#C026D3" stop-opacity=".5"/><stop offset="1" stop-color="#5B21B6" stop-opacity=".7"/></linearGradient><linearGradient id="z" x1="932.63" x2="930.714" y1="346.204" y2="300.888" gradientUnits="userSpaceOnUse"><stop stop-color="#7E22CE" stop-opacity=".3"/><stop offset=".49" stop-color="#C026D3" stop-opacity=".5"/><stop offset="1" stop-color="#5B21B6" stop-opacity=".7"/></linearGradient><linearGradient id="A" x1="421.356" x2="81.306" y1="341.245" y2="-21.328" gradientUnits="userSpaceOnUse"><stop stop-color="#7E22CE" stop-opacity=".3"/><stop offset=".49" stop-color="#C026D3" stop-opacity=".5"/><stop offset="1" stop-color="#5B21B6" stop-opacity=".7"/></linearGradient><linearGradient id="B" x1="441.483" x2="103.301" y1="338.925" y2="14.02" gradientUnits="userSpaceOnUse"><stop stop-color="#7E22CE" stop-opacity=".3"/><stop offset=".49" stop-color="#C026D3" stop-opacity=".5"/><stop offset="1" stop-color="#5B21B6" stop-opacity=".7"/></linearGradient><linearGradient id="C" x1="461.661" x2="129.676" y1="336.58" y2="52.828" gradientUnits="userSpaceOnUse"><stop stop-color="#7E22CE" stop-opacity=".3"/><stop offset=".49" stop-color="#C026D3" stop-opacity=".5"/><stop offset="1" stop-color="#5B21B6" stop-opacity=".7"/></linearGradient><linearGradient id="D" x1="481.746" x2="161.85" y1="334.259" y2="95.397" gradientUnits="userSpaceOnUse"><stop stop-color="#7E22CE" stop-opacity=".3"/><stop offset=".49" stop-color="#C026D3" stop-opacity=".5"/><stop offset="1" stop-color="#5B21B6" stop-opacity=".7"/></linearGradient><linearGradient id="E" x1="501.873" x2="201.467" y1="332.036" y2="140.766" gradientUnits="userSpaceOnUse"><stop stop-color="#7E22CE" stop-opacity=".3"/><stop offset=".49" stop-color="#C026D3" stop-opacity=".5"/><stop offset="1" stop-color="#5B21B6" stop-opacity=".7"/></linearGradient><linearGradient id="F" x1="521.994" x2="247.841" y1="338.265" y2="197.798" gradientUnits="userSpaceOnUse"><stop stop-color="#7E22CE" stop-opacity=".3"/><stop offset=".49" stop-color="#C026D3" stop-opacity=".5"/><stop offset="1" stop-color="#5B21B6" stop-opacity=".7"/></linearGradient><linearGradient id="G" x1="542.115" x2="308.005" y1="344.518" y2="252.593" gradientUnits="userSpaceOnUse"><stop stop-color="#7E22CE" stop-opacity=".3"/><stop offset=".49" stop-color="#C026D3" stop-opacity=".5"/><stop offset="1" stop-color="#5B21B6" stop-opacity=".7"/></linearGradient><linearGradient id="H" x1="562.249" x2="382.168" y1="349.379" y2="299.323" gradientUnits="userSpaceOnUse"><stop stop-color="#7E22CE" stop-opacity=".3"/><stop offset=".49" stop-color="#C026D3" stop-opacity=".5"/><stop offset="1" stop-color="#5B21B6" stop-opacity=".7"/></linearGradient><linearGradient id="I" x1="582.371" x2="467.578" y1="354.509" y2="335.381" gradientUnits="userSpaceOnUse"><stop stop-color="#7E22CE" stop-opacity=".3"/><stop offset=".49" stop-color="#C026D3" stop-opacity=".5"/><stop offset="1" stop-color="#5B21B6" stop-opacity=".7"/></linearGradient><linearGradient id="J" x1="602.529" x2="560.66" y1="357" y2="354.534" gradientUnits="userSpaceOnUse"><stop stop-color="#7E22CE" stop-opacity=".3"/><stop offset=".49" stop-color="#C026D3" stop-opacity=".5"/><stop offset="1" stop-color="#5B21B6" stop-opacity=".7"/></linearGradient><linearGradient id="K" x1="639.682" x2="605.709" y1="356.805" y2="355.181" gradientUnits="userSpaceOnUse"><stop stop-color="#7E22CE" stop-opacity=".3"/><stop offset=".49" stop-color="#C026D3" stop-opacity=".5"/><stop offset="1" stop-color="#5B21B6" stop-opacity=".7"/></linearGradient><linearGradient id="L" x1="697.842" x2="590.315" y1="355.412" y2="338.732" gradientUnits="userSpaceOnUse"><stop stop-color="#7E22CE" stop-opacity=".3"/><stop offset=".49" stop-color="#C026D3" stop-opacity=".5"/><stop offset="1" stop-color="#5B21B6" stop-opacity=".7"/></linearGradient><linearGradient id="M" x1="756" x2="581.942" y1="353.263" y2="307.332" gradientUnits="userSpaceOnUse"><stop stop-color="#7E22CE" stop-opacity=".3"/><stop offset=".49" stop-color="#C026D3" stop-opacity=".5"/><stop offset="1" stop-color="#5B21B6" stop-opacity=".7"/></linearGradient><linearGradient id="N" x1="814.158" x2="583.861" y1="352.555" y2="266.782" gradientUnits="userSpaceOnUse"><stop stop-color="#7E22CE" stop-opacity=".3"/><stop offset=".49" stop-color="#C026D3" stop-opacity=".5"/><stop offset="1" stop-color="#5B21B6" stop-opacity=".7"/></linearGradient><linearGradient id="O" x1="872.461" x2="598.055" y1="350.527" y2="217.805" gradientUnits="userSpaceOnUse"><stop stop-color="#7E22CE" stop-opacity=".3"/><stop offset=".49" stop-color="#C026D3" stop-opacity=".5"/><stop offset="1" stop-color="#5B21B6" stop-opacity=".7"/></linearGradient><linearGradient id="P" x1="930.501" x2="624.707" y1="348.158" y2="165.902" gradientUnits="userSpaceOnUse"><stop stop-color="#7E22CE" stop-opacity=".3"/><stop offset=".49" stop-color="#C026D3" stop-opacity=".5"/><stop offset="1" stop-color="#5B21B6" stop-opacity=".7"/></linearGradient><linearGradient id="Q" x1="988.611" x2="662.378" y1="346.155" y2="114.742" gradientUnits="userSpaceOnUse"><stop stop-color="#7E22CE" stop-opacity=".3"/><stop offset=".49" stop-color="#C026D3" stop-opacity=".5"/><stop offset="1" stop-color="#5B21B6" stop-opacity=".7"/></linearGradient><linearGradient id="R" x1="1046.78" x2="709.35" y1="344.323" y2="66.332" gradientUnits="userSpaceOnUse"><stop stop-color="#7E22CE" stop-opacity=".3"/><stop offset=".49" stop-color="#C026D3" stop-opacity=".5"/><stop offset="1" stop-color="#5B21B6" stop-opacity=".7"/></linearGradient><linearGradient id="S" x1="1104.88" x2="765.118" y1="340.83" y2="20.183" gradientUnits="userSpaceOnUse"><stop stop-color="#7E22CE" stop-opacity=".3"/><stop offset=".49" stop-color="#C026D3" stop-opacity=".5"/><stop offset="1" stop-color="#5B21B6" stop-opacity=".7"/></linearGradient><linearGradient id="T" x1="1163.07" x2="820.774" y1="343.101" y2="-15.739" gradientUnits="userSpaceOnUse"><stop stop-color="#7E22CE" stop-opacity=".3"/><stop offset=".49" stop-color="#C026D3" stop-opacity=".5"/><stop offset="1" stop-color="#5B21B6" stop-opacity=".7"/></linearGradient><linearGradient id="U" x1="1221.22" x2="880.127" y1="345.154" y2="-48.127" gradientUnits="userSpaceOnUse"><stop stop-color="#7E22CE" stop-opacity=".3"/><stop offset=".49" stop-color="#C026D3" stop-opacity=".5"/><stop offset="1" stop-color="#5B21B6" stop-opacity=".7"/></linearGradient><linearGradient id="V" x1="1279.39" x2="941.787" y1="346.937" y2="-77.262" gradientUnits="userSpaceOnUse"><stop stop-color="#7E22CE" stop-opacity=".3"/><stop offset=".49" stop-color="#C026D3" stop-opacity=".5"/><stop offset="1" stop-color="#5B21B6" stop-opacity=".7"/></linearGradient><linearGradient id="W" x1="1337.54" x2="1005.55" y1="348.353" y2="-103.385" gradientUnits="userSpaceOnUse"><stop stop-color="#7E22CE" stop-opacity=".3"/><stop offset=".49" stop-color="#C026D3" stop-opacity=".5"/><stop offset="1" stop-color="#5B21B6" stop-opacity=".7"/></linearGradient><linearGradient id="X" x1="1395.58" x2="1070.76" y1="349.355" y2="-126.757" gradientUnits="userSpaceOnUse"><stop stop-color="#7E22CE" stop-opacity=".3"/><stop offset=".49" stop-color="#C026D3" stop-opacity=".5"/><stop offset="1" stop-color="#5B21B6" stop-opacity=".7"/></linearGradient><linearGradient id="Y" x1="1453.84" x2="1137.53" y1="349.794" y2="-147.692" gradientUnits="userSpaceOnUse"><stop stop-color="#7E22CE" stop-opacity=".3"/><stop offset=".49" stop-color="#C026D3" stop-opacity=".5"/><stop offset="1" stop-color="#5B21B6" stop-opacity=".7"/></linearGradient></defs></svg>
