<svg xmlns="http://www.w3.org/2000/svg" width="18" height="18" fill="none"><path fill="#F1F5F9" d="M3.495 9.681a.5.5 0 1 0-.99.138l.99-.138Zm11.591 1.761a.5.5 0 1 0-.922-.384l.922.384ZM14.5 14.25a.5.5 0 0 0 1 0h-1Zm.5-3h.5a.5.5 0 0 0-.5-.5v.5Zm-3-.5a.5.5 0 0 0 0 1v-1Zm-9.495-.931a6.575 6.575 0 0 0 5.67 5.616l.129-.992A5.575 5.575 0 0 1 3.495 9.68l-.99.138Zm5.67 5.616a6.575 6.575 0 0 0 6.911-3.993l-.922-.384a5.575 5.575 0 0 1-5.86 3.385l-.128.992ZM15.5 14.25v-3h-1v3h1Zm-.5-3.5h-3v1h3v-1ZM14.505 8.308a.5.5 0 1 0 .99-.138l-.99.138ZM2.913 6.547a.5.5 0 1 0 .924.384l-.924-.384ZM3.5 3.739a.5.5 0 0 0-1 0h1Zm-.5 3h-.5a.5.5 0 0 0 .5.5v-.5Zm3 .5a.5.5 0 0 0 0-1v1Zm9.495.931a6.575 6.575 0 0 0-5.67-5.616l-.129.992a5.575 5.575 0 0 1 4.809 4.762l.99-.138Zm-5.67-5.616a6.575 6.575 0 0 0-6.912 3.993l.924.384a5.575 5.575 0 0 1 5.86-3.385l.127-.992ZM2.5 3.74v3h1v-3h-1Zm.5 3.5h3v-1H3v1Z"/></svg>
